# xmcd CD database file
#
# Track frame offsets:
#       150
#       14926
#       37936
#       57541
#       68517
#       89435
#       98760
#       108996
#       120733
#       133459
#       152335
#       166170
#       184983
#       201199
#       217118
#       242585
#       258901
#       271296
#       299156
#       304827
#
# Disc length: 4243 seconds
#
# Revision: 2
# Processed by: cddbd v1.5.2PL0 Copyright (c) Steve Scherf et al.
# Submitted via: CDDBEditor PBVER-PBREV
#
DISCID=2e109114
DTITLE=Charles Trénet - La Folle Complainte - Complete Songs Vol. 8
DYEAR=1952
DGENRE=Chanson
TTITLE0=Retour à Paris (Revoir Paris)
TTITLE1=Le Serpent Python
TTITLE2=Papa pique (et Maman coud)
TTITLE3=N'y pensez pas trop
TTITLE4=Le Chêne et le Roseau
TTITLE5=Y a d'la Joie !
TTITLE6=France Dimanche
TTITLE7=Une Noix
TTITLE8=De la Fenêtre d'en haut
TTITLE9=Que reste-t-il de nos Amours ?
TTITLE10=Vous oubliez votre Cheval
TTITLE11=La Folle Complainte
TTITLE12=Dans les Pharmacies
TTITLE13=Mam'zelle Clio
TTITLE14=La Légende de Sainte Catherine
TTITLE15=La Mer
TTITLE16=L'Héritage infernal
TTITLE17=Les Boeufs
TTITLE18=Au revoir, mes Amis
TTITLE19=Dimanche prochain - Eliane Embrun
EXTD=
EXTT0=
EXTT1=
EXTT2=
EXTT3=
EXTT4=
EXTT5=
EXTT6=
EXTT7=
EXTT8=
EXTT9=
EXTT10=
EXTT11=
EXTT12=
EXTT13=
EXTT14=
EXTT15=
EXTT16=
EXTT17=
EXTT18=
EXTT19=
PLAYORDER=
